# xmcd
#
# Track frame offsets: 
#        150
#        14087
#        26023
#        37970
#        49850
#        60492
#        71752
#        83398
#        95809
#        109233
#        121515
#        134259
#        146724
#        158539
#        169700
#        181433
#        192178
#        202893
#        214096
#        224896
#
# Disc length: 3124 seconds
#
# Revision: 0
# Processed by: cddbd v1.5.2PL0 Copyright (c) Steve Scherf et al.
# Submitted via: ExactAudioCopy v1.0b1
#
DISCID=200c3214
DTITLE=Various Artist - Kickin' Country [CD2)
DYEAR=2017
DGENRE=Country
TTITLE0=Tennessee Ernie Ford - Mule Train
TTITLE1=Bob Wills and Texas Playboys - Lil Liza Jane
TTITLE2=Onie Wheeler - Run 'Em Off
TTITLE3=Arlie Duff - You All Come
TTITLE4=Faron Young - Live Fast, Live Hard, Die Young
TTITLE5=Jimmie Revard and His Oklahoma Playboys - Dirty Dog
TTITLE6=Milton Brown - Keep A Knockin'
TTITLE7=Eddie Shuler's All Star Reveliers - Jambalaya Boogie
TTITLE8=The Rouse Brothers - Orange Blossom Special
TTITLE9=Bill Monroe - Mule Skinner Blues
TTITLE10=Spade Cooley and His Orchestra - Oklahoma Stomp
TTITLE11=Bob Wills and Texas Playboys - Stay A Little Longer
TTITLE12=Link Davis - Kajalena
TTITLE13=Charlie Adams - Cattin' Around
TTITLE14=Earl Peterson - Boogie Blues
TTITLE15=Earl Songer - Whoopie Baby
TTITLE16=Jimmie Logsdon - My Sweet French Baby
TTITLE17=Luke McDaniel - The Automobile Song
TTITLE18=Werly Fairburn - Baby He's A Wolf
TTITLE19=Janice Martin - Let's Elope Baby
EXTD=
EXTT0=
EXTT1=
EXTT2=
EXTT3=
EXTT4=
EXTT5=
EXTT6=
EXTT7=
EXTT8=
EXTT9=
EXTT10=
EXTT11=
EXTT12=
EXTT13=
EXTT14=
EXTT15=
EXTT16=
EXTT17=
EXTT18=
EXTT19=
PLAYORDER=
